PathFileType	4	(X/Y/Z)	/Users/itak/Documents/Research/Walk-IL/dataset/trc/00086_00006.trc
DataRate	CameraRate	NumFrames	NumMarkers	Units	OrigDataRate	OrigDataStartFrame	OrigNumFrames
100.000000	100.000000	4	53	mm	100.000000	419	559
Frame#	Time	RPSI			LPSI			L3			STRN			T10			C7			CLAV			RBAK			LBAK			LSHO			LUPA			LAEL			LAOL			LWTS			LWPS			LFRA			LIFD			LHPS			LHTS			RSHO			RUPA			RAEL			RAOL			RWTS			RWPS			RFRA			RIFD			RHTS			RHPS			RBHD			LFHD			RFHD			LBHD			LHIP			RHIP			RASI			LASI			LKNE			LTHI			LANK			LTIP			LTOE			LMT1			LMT5			LHEE			RKNE			RTHI			RANK			RTIP			RTOE			RMT1			RMT5			RHEE			
		X1	Y1	Z1	X2	Y2	Z2	X3	Y3	Z3	X4	Y4	Z4	X5	Y5	Z5	X6	Y6	Z6	X7	Y7	Z7	X8	Y8	Z8	X9	Y9	Z9	X10	Y10	Z10	X11	Y11	Z11	X12	Y12	Z12	X13	Y13	Z13	X14	Y14	Z14	X15	Y15	Z15	X16	Y16	Z16	X17	Y17	Z17	X18	Y18	Z18	X19	Y19	Z19	X20	Y20	Z20	X21	Y21	Z21	X22	Y22	Z22	X23	Y23	Z23	X24	Y24	Z24	X25	Y25	Z25	X26	Y26	Z26	X27	Y27	Z27	X28	Y28	Z28	X29	Y29	Z29	X30	Y30	Z30	X31	Y31	Z31	X32	Y32	Z32	X33	Y33	Z33	X34	Y34	Z34	X35	Y35	Z35	X36	Y36	Z36	X37	Y37	Z37	X38	Y38	Z38	X39	Y39	Z39	X40	Y40	Z40	X41	Y41	Z41	X42	Y42	Z42	X43	Y43	Z43	X44	Y44	Z44	X45	Y45	Z45	X46	Y46	Z46	X47	Y47	Z47	X48	Y48	Z48	X49	Y49	Z49	X50	Y50	Z50	X51	Y51	Z51	X52	Y52	Z52	X53	Y53	Z53	

420	4.19	404.4922180175781	1001.888671875	-199.1958465576172	241.7897644042969	994.2081909179688	-255.888427734375	310.1547241210938	1060.105834960938	-231.1628875732422	423.0816955566406	1260.140258789062	-453.5211791992188	286.7191772460938	1187.723999023438	-223.1566619873047	313.6991271972656	1456.62451171875	-269.2557983398438	408.4528503417969	1373.693237304688	-423.5079956054688	344.8187255859375	1314.620971679688	-183.2542877197266	213.1217193603516	1421.0361328125	-303.2062377929688	207.6976623535156	1429.572387695312	-428.3316650390625	138.4179229736328	1304.001098632812	-469.6564331054688	150.635498046875	1097.8916015625	-537.7626953125	184.0722198486328	1065.44091796875	-440.8491821289062	342.2666931152344	938.6535034179688	-620.7986450195312	270.3452758789062	891.5919799804688	-625.4172973632812	196.3271636962891	1007.127990722656	-585.8851928710938	441.6860656738281	788.4244384765625	-670.2510375976562	325.7853393554688	839.1870727539062	-665.5589599609375	386.1943359375	877.7804565429688	-661.3953247070312	495.9437866210938	1417.560180664062	-234.5862426757812	539.6473999023438	1349.338745117188	-190.885498046875	539.1917114257812	1094.705078125	-125.6215362548828	472.9676208496094	1067.045654296875	-196.7240600585938	583.1813354492188	825.5861206054688	-228.5432586669922	584.223876953125	823.67041015625	-140.9090881347656	551.1148071289062	1015.266784667969	-122.1577987670898	571.5995483398438	637.3504028320312	-213.09912109375	593.3115844726562	722.8988037109375	-232.224853515625	605.0960083007812	731.5255126953125	-156.6868896484375	421.4371643066406	1617.673217773438	-260.6029052734375	350.8802490234375	1686.400512695312	-460.4684753417969	468.2319946289062	1680.954956054688	-414.0264587402344	290.1669616699219	1630.414184570312	-302.2020874023438	189.2189636230469	932.7914428710938	-385.4902038574219	504.7662353515625	936.2422485351562	-240.2702331542969	527.2738037109375	960.977783203125	-362.0716247558594	282.1977233886719	943.07763671875	-469.1839904785156	292.7889099121094	461.4855346679688	-373.5066528320312	238.7756652832031	606.1853637695312	-384.2746276855469	149.9827270507812	80.96770477294922	-111.1168060302734	204.6688079833984	259.9963684082031	-239.4769744873047	308.5497436523438	38.10871505737305	-219.070068359375	302.4229431152344	47.57678604125977	-154.7017974853516	199.9176330566406	36.79153442382812	-196.6810150146484	164.9029541015625	120.4120101928711	-27.46012687683105	551.193603515625	522.8084716796875	-445.8606567382812	555.6317749023438	780.2610473632812	-360.6936645507812	568.828125	34.22656631469727	-444.9646301269531	564.2006225585938	396.0931091308594	-455.2073974609375	559.8526000976562	49.01026153564453	-661.1408081054688	514.292236328125	46.78143692016602	-607.9948120117188	601.4802856445312	44.61139297485352	-562.939697265625	504.489013671875	33.82115173339844	-409.9447021484375	
421	4.2	410.4197387695312	1003.373596191406	-206.3686676025391	247.3601989746094	995.1285400390625	-262.1634216308594	315.7662658691406	1060.948364257812	-238.1127777099609	427.838623046875	1261.652221679688	-460.5218200683594	292.5406799316406	1188.777099609375	-229.5878753662109	319.0562133789062	1457.6630859375	-275.49169921875	413.2140197753906	1375.142333984375	-430.26416015625	350.8412170410156	1315.640258789062	-189.8714904785156	218.3371734619141	1422.141235351562	-308.9880676269531	212.4073638916016	1430.81591796875	-434.0870971679688	142.9770812988281	1305.205444335938	-475.0204467773438	154.592529296875	1098.696044921875	-541.8241577148438	188.8997650146484	1066.835205078125	-445.0672607421875	342.5277709960938	935.6405029296875	-626.0149536132812	269.7247924804688	889.6364135742188	-628.924072265625	198.23583984375	1006.81787109375	-589.6508178710938	438.25146484375	782.99951171875	-675.4561157226562	323.5301208496094	835.9406127929688	-669.4410400390625	384.6053161621094	873.5046997070312	-666.6412963867188	501.5224609375	1419.0048828125	-241.7502136230469	545.6126708984375	1350.8193359375	-198.3399505615234	545.9388427734375	1095.9765625	-133.8764801025391	479.5792541503906	1068.38134765625	-204.8490447998047	590.5645141601562	827.3734741210938	-237.9750671386719	591.7880859375	825.1510009765625	-150.3510589599609	558.1099853515625	1016.491455078125	-130.6838989257812	579.5692749023438	639.0307006835938	-223.1394805908203	600.972412109375	724.6832275390625	-242.0221099853516	612.904052734375	733.1039428710938	-166.4967041015625	426.3487243652344	1618.970581054688	-267.0947875976562	355.1205444335938	1687.609497070312	-466.7366638183594	472.6182861328125	1682.319458007812	-420.6629943847656	294.9430847167969	1631.515258789062	-308.3087463378906	194.2551727294922	933.6301879882812	-391.5316467285156	510.4353332519531	937.7750244140625	-247.7439575195312	532.4095458984375	962.3626708984375	-369.6900329589844	286.946044921875	944.3663940429688	-475.5562744140625	297.8775024414062	461.2786254882812	-386.8386840820312	244.2510070800781	606.534912109375	-394.9366455078125	151.8058471679688	86.53639984130859	-114.3440704345703	207.7062377929688	263.6260986328125	-247.3935241699219	307.7879943847656	37.83383560180664	-220.3246765136719	303.0603942871094	49.10062789916992	-157.1281433105469	200.1107025146484	36.9260368347168	-197.5458831787109	168.780517578125	129.5850830078125	-33.0609130859375	554.679443359375	523.1043701171875	-451.656982421875	560.09619140625	781.2234497070312	-368.2525329589844	569.2310180664062	34.38467407226562	-445.4158020019531	566.8923950195312	395.9660949707031	-459.8072204589844	560.8033447265625	45.75735473632812	-662.7019653320312	515.2335815429688	45.39990234375	-609.0381469726562	602.11572265625	43.39327621459961	-563.6265258789062	504.8634643554688	34.35572814941406	-410.2147521972656	
422	4.21	416.3532409667969	1004.854919433594	-213.4440765380859	252.8994293212891	995.9879150390625	-268.2301635742188	321.39404296875	1061.876953125	-244.8589477539062	432.4360961914062	1263.166137695312	-467.5085754394531	298.3727416992188	1189.870483398438	-235.90478515625	324.3626708984375	1458.7255859375	-281.6951293945312	417.8288879394531	1376.603637695312	-437.0230712890625	356.8977355957031	1316.712890625	-196.4449615478516	223.4789123535156	1423.26513671875	-314.659912109375	216.9828186035156	1432.07861328125	-439.7149353027344	147.3981781005859	1306.45263671875	-480.2507019042969	158.4453887939453	1099.53564453125	-545.75537109375	193.6086883544922	1068.282958984375	-449.1566772460938	342.48828125	932.5205078125	-630.9772338867188	268.7956237792969	887.6638793945312	-632.123291015625	199.9574890136719	1006.526000976562	-593.2154541015625	434.3215942382812	777.3306274414062	-680.1583862304688	320.8814086914062	832.5953979492188	-672.92138671875	382.6382751464844	869.03173828125	-671.5266723632812	507.0755004882812	1420.51806640625	-248.9929046630859	551.5794067382812	1352.414184570312	-205.8724822998047	552.7536010742188	1097.39306640625	-142.0887145996094	486.2188415527344	1069.838256835938	-212.8741149902344	597.9556274414062	829.3591918945312	-247.5948181152344	599.4021606445312	826.7434692382812	-159.9895324707031	565.1885986328125	1017.824279785156	-139.1934661865234	587.5089721679688	640.9031982421875	-233.5628204345703	608.5875244140625	726.644775390625	-252.1004486083984	620.7330932617188	734.8050537109375	-176.6060485839844	431.1959838867188	1620.246215820312	-273.5608520507812	359.31591796875	1688.839111328125	-472.9743347167969	476.9524536132812	1683.666015625	-427.2579650878906	299.6660461425781	1632.627563476562	-314.3937072753906	199.2073211669922	934.440185546875	-397.3706665039062	516.0761108398438	939.2843627929688	-255.1806182861328	537.43701171875	963.7357788085938	-377.2715759277344	291.5293579101562	945.6941528320312	-481.7910766601562	302.9339294433594	461.1900329589844	-401.0271301269531	249.7262878417969	606.923583984375	-406.1241149902344	154.0814971923828	92.63764190673828	-118.0864791870117	211.0742034912109	267.519287109375	-256.0475769042969	306.9281005859375	37.45960998535156	-222.3076019287109	303.9603881835938	50.84547424316406	-160.3415069580078	200.4512329101562	37.37487030029297	-198.6967620849609	173.4568023681641	139.1681823730469	-39.43117523193359	558.0609130859375	523.2555541992188	-456.927001953125	564.5789184570312	782.055419921875	-375.4431457519531	569.5358276367188	34.5357780456543	-445.8297424316406	569.4667358398438	395.766845703125	-463.9434204101562	561.7503051757812	42.94008255004883	-664.0770263671875	516.126953125	44.2913932800293	-609.9891967773438	602.7228393554688	42.36944961547852	-564.2334594726562	505.1383056640625	34.78696441650391	-410.4958801269531	
423	4.22	422.2868347167969	1006.288696289062	-220.3986358642578	258.3924255371094	996.7289428710938	-274.0757446289062	327.0487365722656	1062.844360351562	-251.3841400146484	436.8442687988281	1264.6259765625	-474.4699096679688	304.2173767089844	1190.963745117188	-242.0833282470703	329.615966796875	1459.777954101562	-287.8501892089844	422.2765808105469	1378.023559570312	-443.7791748046875	362.9871215820312	1317.801025390625	-202.9530639648438	228.5408325195312	1424.359375	-320.2005004882812	221.3987579345703	1433.301147460938	-445.1921997070312	151.6552581787109	1307.67333984375	-485.306640625	162.1637268066406	1100.353149414062	-549.5681762695312	198.1593780517578	1069.71044921875	-453.1261901855469	342.1608581542969	929.2964477539062	-635.676513671875	267.5885620117188	885.6664428710938	-635.0381469726562	201.4911346435547	1006.215881347656	-596.5944213867188	429.9770812988281	771.4813842773438	-684.3435668945312	317.8938903808594	829.1647338867188	-676.0114135742188	380.3377075195312	864.3941650390625	-676.0427856445312	512.6002807617188	1422.042358398438	-256.317626953125	557.5479125976562	1354.062255859375	-213.4938507080078	559.65283203125	1098.893676757812	-150.2469482421875	492.8872985839844	1071.34765625	-220.7668914794922	605.3441162109375	831.4848022460938	-257.3909301757812	607.063232421875	828.3823852539062	-169.8143463134766	572.3666381835938	1019.207458496094	-147.6770935058594	595.4114379882812	642.9165649414062	-244.3839111328125	616.1463012695312	728.7291259765625	-262.4558715820312	628.5780029296875	736.568359375	-187.0181579589844	435.9719543457031	1621.451171875	-279.9987182617188	363.4590148925781	1690.054443359375	-479.1742553710938	481.2290344238281	1684.9560546875	-433.8059387207031	304.3284301757812	1633.708862304688	-320.4521179199219	204.0746917724609	935.168701171875	-403.0045471191406	521.6762084960938	940.7282104492188	-262.562255859375	542.3538818359375	965.058349609375	-384.7926635742188	295.944580078125	947.0010375976562	-487.8809204101562	307.9201354980469	461.2355041503906	-415.9227600097656	255.1403961181641	607.3484497070312	-417.73876953125	156.8860626220703	99.21916198730469	-122.3914566040039	214.7946929931641	271.6165466308594	-265.397705078125	305.9971923828125	36.99935150146484	-225.2381134033203	305.1529846191406	52.82500839233398	-164.5299072265625	200.9743804931641	38.26862716674805	-200.2849578857422	178.9600067138672	148.9746856689453	-46.54798889160156	561.3031616210938	523.26025390625	-461.7010192871094	569.0643310546875	782.7222290039062	-382.2515563964844	569.7353515625	34.66980361938477	-446.2069091796875	571.9088745117188	395.4885559082031	-467.6669921875	562.5999755859375	40.54806137084961	-665.2633666992188	516.8994750976562	43.39856338500977	-610.8421020507812	603.2510986328125	41.51461791992188	-564.77880859375	505.3212585449219	35.12841796875	-410.7768249511719	
